<svg width="140" height="27" viewBox="0 0 140 27" fill="none" xmlns="http://www.w3.org/2000/svg">
<path d="M17.1454 20.6547H17.8122V20.1908H17.1454V19.669H8.38988V20.1908H7.69408V20.6547H8.38988V21.1765H17.1454V20.6547ZM5.43273 24.7711V23.9304H4.47601V22.8868H3.51928V21.9302H2.79449V18.8573H3.51928V17.9007H4.47601V16.8571H5.43273V16.0454H20.0155V16.8571H21.0013V17.9007H21.958V18.8573H22.6828V21.9302H21.958V22.8868H21.0013V23.9304H20.0155V24.7711H5.43273ZM22.5088 11.0303V11.842H23.4655V14.364H22.5088V15.1757H2.96844V14.364H2.01172V11.842H2.96844V11.0303H8.96972V9.69677H9.92644V8.74013H13.2315V9.69677H14.1882V11.0303H22.5088ZM21.5521 3.02927V3.98591H22.5088V9.40688H21.5521V10.3635H18.276V9.40688H17.3193V7.2037H3.92517V6.24706H2.96844V3.98591H3.92517V3.02927H21.5521Z" fill="white"/>
<path d="M25.7534 20.3068V19.3791H24.7967V16.6831H25.7534V15.7265H45.2938V16.6831H46.2505V19.3791H45.2938V20.3068H38.1329V23.8145H37.1762V24.7711H33.9001V23.8145H32.9434V20.3068H25.7534ZM39.7564 9.46486H31.2908V10.2476H39.7564V9.46486ZM44.0182 3.98591H45.0039V13.5813H44.0182V14.538H27.0001V13.5813H26.0434V3.98591H27.0001V3.02927H30.3051V3.98591H31.2908V5.02952H39.7564V3.98591H40.7131V3.02927H44.0182V3.98591Z" fill="white"/>
<path d="M55.4674 14.335H54.8006V13.6683H53.8439V14.335H53.1771V19.698H53.8439V20.3648H54.8006V19.698H55.4674V14.335ZM67.0061 3.02927V3.98591H67.9338V11.5811H69.4414V12.5377H70.3981V15.2627H69.4414V16.2193H67.9338V23.8145H67.0061V24.7711H63.7301V23.8145H62.7733V3.98591H63.7301V3.02927H67.0061ZM60.425 4.18883V5.14547H61.3817V7.84146H60.425V8.79811H48.3065V7.84146H47.3498V5.14547H48.3065V4.18883H51.7275V2.85533H52.7132V2.01465H55.9893V2.85533H56.975V4.18883H60.425ZM60.7149 12.4217V21.5823H59.7872V22.51H58.8595V23.4376H57.9317V24.3653H50.6838V23.4376H49.7561V22.51H48.8284V21.5823H47.9296V12.4217H48.8284V11.4941H49.7561V10.5664H50.6838V9.66778H57.9317V10.5664H58.8595V11.4941H59.7872V12.4217H60.7149Z" fill="white"/>
<path d="M91.4584 21.1185V23.8145H90.5016V24.7711H72.8747V23.8145H71.918V18.3935H72.8747V17.4369H76.1508V18.3935H77.1075V20.1618H90.5016V21.1185H91.4584ZM70.9613 13.4943H71.773V12.6826H91.6033V13.4943H92.4151V15.8715H91.6033V16.6831H71.773V15.8715H70.9613V13.4943ZM72.8747 11.813V10.8563H71.918V3.98591H72.8747V3.02927H76.1508V3.98591H77.1075V7.63854H90.5016V8.59518H91.4584V10.8563H90.5016V11.813H72.8747Z" fill="white"/>
<path d="M108.88 20.6547H109.547V20.1908H108.88V19.669H100.124V20.1908H99.4286V20.6547H100.124V21.1765H108.88V20.6547ZM97.1673 24.7711V23.9304H96.2105V22.8868H95.2538V21.9302H94.529V18.8573H95.2538V17.9007H96.2105V16.8571H97.1673V16.0454H111.75V16.8571H112.736V17.9007H113.693V18.8573H114.417V21.9302H113.693V22.8868H112.736V23.9304H111.75V24.7711H97.1673ZM95.6597 10.2766V9.31991H94.703V3.98591H95.6597V3.02927H98.9358V3.98591H99.8925V6.33403H113.287V7.29067H114.243V9.31991H113.287V10.2766H107.082V11.1462H114.388V11.9579H115.2V14.335H114.388V15.1467H94.558V14.335H93.7463V11.9579H94.558V11.1462H101.864V10.2766H95.6597Z" fill="white"/>
<path d="M117.488 20.3068V19.3791H116.531V16.6831H117.488V15.7265H137.028V16.6831H137.985V19.3791H137.028V20.3068H129.867V23.8145H128.911V24.7711H125.635V23.8145H124.678V20.3068H117.488ZM131.491 9.46486H123.025V10.2476H131.491V9.46486ZM135.753 3.98591H136.738V13.5813H135.753V14.538H118.735V13.5813H117.778V3.98591H118.735V3.02927H122.04V3.98591H123.025V5.02952H131.491V3.98591H132.448V3.02927H135.753V3.98591Z" fill="white"/>
<path fill-rule="evenodd" clip-rule="evenodd" d="M8.39147 19.6675V20.1893H7.69567V20.6531H8.39147V21.1749H17.147V20.6531H17.8138V20.1893H17.147V19.6675H8.39147ZM21.0028 17.8992H21.9596V18.8558H22.6844V21.9287H21.9596V22.8853H21.0028V23.9289H20.0171V24.7696H5.43433V23.9289H4.4776V22.8853H3.52088V21.9287H2.79608V18.8558H3.52088V17.8992H4.4776V16.8556H5.43433V16.0439H20.0171V16.8556H21.0028V17.8992ZM23.9729 23.9418H24.6977V22.3184H30.9317V25.8261H31.8884V26.7827H39.1911V25.8261H40.1478V22.3184H45.9179V23.5939H46.8166V24.5216H47.7444V25.4492H48.6721V26.3769H59.9466V25.4492H60.7616V25.8261H61.7183V26.7827H69.021V25.8261H70.863V26.7827H92.5166V25.8261H93.4733V24.8984H94.1988V25.9421H95.1556V26.7827H113.765V25.9421H114.751V24.8984H115.707V23.9418H116.432V22.3184H122.666V25.8261H123.623V26.7827H130.926V25.8261H131.882V22.3184H139.043V21.3908H140V14.6685H139.043V13.7119H138.753V1.97126H137.768V1.01462H130.436V1.97126H129.479V3.01487H125.04V1.97126H124.055V1.01462H116.723V1.97126H115.766V5.27602H115.302V4.31938H101.907V1.97126H100.951V1.01462H93.648V1.97126H92.6913V6.58053H92.5166V5.62389H79.1224V1.97126H78.1657V1.01462H70.863V1.97126H69.021V1.01462H61.7183V1.97126H60.7616V2.17418H58.9899V0.840684H58.0042V0H50.7015V0.840684H49.7158V2.17418H47.0188V1.97126H46.0331V1.01462H38.7014V1.97126H37.7447V3.01487H33.3057V1.97126H32.32V1.01462H24.9884V1.97126H23.567V1.01462H1.91345V1.97126H0.956725V8.25868H1.91345V9.01562H0.956725V9.82732H0V16.3756H0.956725V16.8427H0.782775V23.9418H1.50757V24.8984H2.46429V25.9421H3.42102V26.7827H22.0304V25.9421H23.0162V24.8984H23.9729V23.9418ZM22.5104 15.1742V14.3625H23.4671V11.8404H22.5104V11.0288H14.1898V9.69525H13.2331V8.73861H9.92803V9.69525H8.97131V11.0288H2.97003V11.8404H2.01331V14.3625H2.97003V15.1742H22.5104ZM17.3209 7.20219V9.40536H18.2776V10.362H21.5537V9.40536H22.5104V3.9844H21.5537V3.02775H3.92676V3.9844H2.97003V6.24555H3.92676V7.20219H17.3209ZM25.755 16.6816H24.7983V19.3776H25.755V20.3053H32.945V23.813H33.9017V24.7696H37.1777V23.813H38.1345V20.3053H45.2954V19.3776H46.2521V16.6816H45.2954V15.725H25.755V16.6816ZM27.0017 14.5364H44.0198V13.5798H45.0055V3.9844H44.0198V3.02775H40.7147V3.9844H39.758V5.028H31.2924V3.9844H30.3067V3.02775H27.0017V3.9844H26.045V13.5798H27.0017V14.5364ZM47.9312 21.5808H48.83V22.5084H49.7577V23.4361H50.6854V24.3638H57.9333V23.4361H58.8611V22.5084H59.7888V21.5808H60.7165V12.4202H59.7888V11.4926H58.8611V10.5649H57.9333V9.66626H50.6854V10.5649H49.7577V11.4926H48.83V12.4202H47.9312V21.5808ZM54.8022 13.6668H53.8455V14.3335H53.1787V19.6965H53.8455V20.3633H54.8022V19.6965H55.469V14.3335H54.8022V13.6668ZM60.4266 8.79659V7.83995H61.3833V5.14396H60.4266V4.18732H56.9766V2.85382H55.9909V2.01313H52.7148V2.85382H51.7291V4.18732H48.3081V5.14396H47.3514V7.83995H48.3081V8.79659H60.4266ZM62.7749 3.9844V23.813H63.7317V24.7696H67.0077V23.813H67.9354V16.2178H69.443V15.2612H70.3997V12.5362H69.443V11.5795H67.9354V3.9844H67.0077V3.02775H63.7317V3.9844H62.7749ZM70.9629 15.8699H71.7746V16.6816H91.6049V15.8699H92.4167V13.4928H91.6049V12.6811H71.7746V13.4928H70.9629V15.8699ZM71.9196 10.8548H72.8763V11.8115H90.5032V10.8548H91.46V8.59367H90.5032V7.63702H77.1091V3.9844H76.1524V3.02775H72.8763V3.9844H71.9196V10.8548ZM93.7479 14.3335H94.5596V15.1452H114.39V14.3335H115.202V11.9564H114.39V11.1447H107.084V10.275H113.288V9.31839H114.245V7.28915H113.288V6.33251H99.8941V3.9844H98.9374V3.02775H95.6613V3.9844H94.7046V9.31839H95.6613V10.275H101.866V11.1447H94.5596V11.9564H93.7479V14.3335ZM112.737 16.8556H111.752V16.0439H97.1689V16.8556H96.2122V17.8992H95.2554V18.8558H94.5306V21.9287H95.2554V22.8853H96.2122V23.9289H97.1689V24.7696H111.752V23.9289H112.737V22.8853H113.694V21.9287H114.419V18.8558H113.694V17.8992H112.737V16.8556ZM100.126 19.6675V20.1893H99.4302V20.6531H100.126V21.1749H108.882V20.6531H109.548V20.1893H108.882V19.6675H100.126ZM117.49 16.6816H116.533V19.3776H117.49V20.3053H124.68V23.813H125.636V24.7696H128.912V23.813H129.869V20.3053H137.03V19.3776H137.987V16.6816H137.03V15.725H117.49V16.6816ZM118.736 14.5364H135.754V13.5798H136.74V3.9844H135.754V3.02775H132.449V3.9844H131.493V5.028H123.027V3.9844H122.041V3.02775H118.736V3.9844H117.78V13.5798H118.736V14.5364ZM77.1091 20.1603V18.392H76.1524V17.4353H72.8763V18.392H71.9196V23.813H72.8763V24.7696H90.5032V23.813H91.46V21.117H90.5032V20.1603H77.1091ZM31.2924 10.246H39.758V9.46334H31.2924V10.246ZM123.027 10.246H131.493V9.46334H123.027V10.246Z" fill="#272727"/>
</svg>
